<svg width="1200" height="1200" viewBox="0 0 1200 1200" fill="none" xmlns="http://www.w3.org/2000/svg">
<path d="M983.687 359.313L643.375 163.844C630.719 156.812 618.062 154 604 154C589.937 154 577.281 156.812 564.625 163.844L224.312 359.313C200.406 373.375 184.938 398.687 184.938 425.406V813.531C184.938 840.25 200.406 865.562 224.312 879.625L509.781 1042.75C521.031 1049.78 535.094 1052.59 547.75 1052.59C549.156 1052.59 550.562 1052.59 551.969 1052.59C592.75 1051.19 626.5 1017.44 626.5 976.656V920.406L627.906 917.594C668.688 824.781 698.219 758.688 716.5 723.531C723.531 709.469 731.969 696.813 747.438 677.125C748.844 675.719 755.875 667.281 757.281 664.469C793.844 618.062 809.313 585.719 809.313 532.281C809.313 421.187 717.906 331.188 605.406 331.188C492.906 331.188 401.5 422.594 401.5 533.688C401.5 584.312 414.156 616.656 446.5 660.25C449.312 663.063 459.156 677.125 461.969 681.344C474.625 698.219 483.062 710.875 490.094 726.344C506.969 762.906 536.5 823.375 578.688 909.156V978.062C578.688 993.531 566.031 1006.19 550.562 1006.19C544.937 1006.19 540.719 1004.78 536.5 1001.97L251.031 838.844C242.594 833.219 236.969 824.781 236.969 814.938V425.406C236.969 415.562 242.594 405.719 251.031 401.5L589.937 206.031C598.375 200.406 609.625 200.406 618.062 206.031L958.375 400.094C966.813 405.719 972.438 414.156 972.438 424V812.125C972.438 821.969 966.813 831.812 958.375 836.031L730.562 968.219C719.312 975.25 715.094 989.312 722.125 1001.97C727.75 1010.41 736.187 1014.63 746.031 1014.63C748.844 1014.63 753.062 1013.22 755.875 1011.81L983.687 881.031C1007.59 866.969 1023.06 841.656 1023.06 814.938V425.406C1021.66 397.281 1007.59 371.969 983.687 359.313ZM533.687 705.25C525.25 686.969 515.406 671.5 501.344 651.813C498.531 647.594 488.687 633.531 485.875 630.719C459.156 595.563 450.719 571.656 450.719 532.281C450.719 447.906 519.625 379 605.406 379C691.187 379 761.5 449.312 761.5 533.688C761.5 573.062 750.25 595.563 719.312 634.938C717.906 637.75 710.875 644.781 709.469 647.594C692.594 668.687 682.75 682.75 672.906 701.031C661.656 723.531 646.187 755.875 627.906 796.656V609.625C657.437 599.781 678.531 573.062 678.531 540.719C678.531 499.937 646.187 467.594 605.406 467.594C564.625 467.594 532.281 499.937 532.281 540.719C532.281 571.656 551.969 598.375 578.688 608.219V796.656C559 757.281 544.937 726.344 533.687 705.25Z" fill="black"/>
<g filter="url(#filter0_d_309_654)">
<path d="M852 881.067C852 835.309 852 812.43 866.215 798.215C880.43 784 903.309 784 949.067 784H1034.93C1080.69 784 1103.57 784 1117.78 798.215C1132 812.43 1132 835.309 1132 881.067V966.933C1132 1012.69 1132 1035.57 1117.78 1049.78C1103.57 1064 1080.69 1064 1034.93 1064H949.067C903.309 1064 880.43 1064 866.215 1049.78C852 1035.57 852 1012.69 852 966.933V881.067Z" fill="#4945FF"/>
<path fill-rule="evenodd" clip-rule="evenodd" d="M1045.2 868.933H950.934V917H999V965.067H1047.07V870.8C1047.07 869.769 1046.23 868.933 1045.2 868.933Z" fill="white"/>
<path d="M999 917H997.134V918.867H999V917Z" fill="white"/>
<path d="M950.934 917H997.134C998.164 917 999 917.836 999 918.867V965.067H952.8C951.769 965.067 950.934 964.231 950.934 963.2V917Z" fill="#9593FF"/>
<path d="M999 965.067H1047.07L1000.59 1011.54C1000.01 1012.13 999 1011.71 999 1010.88V965.067Z" fill="#9593FF"/>
<path d="M950.933 917H905.12C904.288 917 903.872 915.995 904.46 915.407L950.933 868.933V917Z" fill="#9593FF"/>
</g>
<defs>
<filter id="filter0_d_309_654" x="820" y="756" width="344" height="344" filterUnits="userSpaceOnUse" color-interpolation-filters="sRGB">
<feFlood flood-opacity="0" result="BackgroundImageFix"/>
<feColorMatrix in="SourceAlpha" type="matrix" values="0 0 0 0 0 0 0 0 0 0 0 0 0 0 0 0 0 0 127 0" result="hardAlpha"/>
<feOffset dy="4"/>
<feGaussianBlur stdDeviation="16"/>
<feComposite in2="hardAlpha" operator="out"/>
<feColorMatrix type="matrix" values="0 0 0 0 0 0 0 0 0 0 0 0 0 0 0 0 0 0 0.25 0"/>
<feBlend mode="normal" in2="BackgroundImageFix" result="effect1_dropShadow_309_654"/>
<feBlend mode="normal" in="SourceGraphic" in2="effect1_dropShadow_309_654" result="shape"/>
</filter>
</defs>
</svg>
